<svg width="18" height="18" viewBox="0 0 18 18" fill="none" xmlns="http://www.w3.org/2000/svg">
<path d="M5.22 0.5H12.78C15.3839 0.5 17.5 2.61614 17.5 5.22V12.78C17.5 14.0318 17.0027 15.2324 16.1175 16.1175C15.2324 17.0027 14.0318 17.5 12.78 17.5H5.22C2.61614 17.5 0.5 15.3839 0.5 12.78V5.22C0.5 3.96818 0.997284 2.76763 1.88246 1.88246C2.76763 0.997284 3.96818 0.5 5.22 0.5ZM5.04 1.3C4.04809 1.3 3.09681 1.69403 2.39542 2.39542C1.69403 3.09681 1.3 4.04809 1.3 5.04V12.96C1.3 15.0271 2.97286 16.7 5.04 16.7H12.96C13.9519 16.7 14.9032 16.306 15.6046 15.6046C16.306 14.9032 16.7 13.9519 16.7 12.96V5.04C16.7 2.97286 15.0271 1.3 12.96 1.3H5.04ZM13.725 3.65C13.8908 3.65 14.0497 3.71585 14.1669 3.83306C14.2842 3.95027 14.35 4.10924 14.35 4.275C14.35 4.44076 14.2842 4.59973 14.1669 4.71694C14.0497 4.83415 13.8908 4.9 13.725 4.9C13.5592 4.9 13.4003 4.83415 13.2831 4.71694C13.1658 4.59973 13.1 4.44076 13.1 4.275C13.1 4.10924 13.1658 3.95027 13.2831 3.83306C13.4003 3.71585 13.5592 3.65 13.725 3.65ZM9 5C10.0609 5 11.0783 5.42143 11.8284 6.17157C12.5786 6.92172 13 7.93913 13 9C13 10.0609 12.5786 11.0783 11.8284 11.8284C11.0783 12.5786 10.0609 13 9 13C7.93913 13 6.92172 12.5786 6.17157 11.8284C5.42143 11.0783 5 10.0609 5 9C5 7.93913 5.42143 6.92172 6.17157 6.17157C6.92172 5.42143 7.93913 5 9 5ZM9 5.8C8.15131 5.8 7.33737 6.13714 6.73726 6.73726C6.13714 7.33737 5.8 8.15131 5.8 9C5.8 9.84869 6.13714 10.6626 6.73726 11.2627C7.33737 11.8629 8.15131 12.2 9 12.2C9.84869 12.2 10.6626 11.8629 11.2627 11.2627C11.8629 10.6626 12.2 9.84869 12.2 9C12.2 8.15131 11.8629 7.33737 11.2627 6.73726C10.6626 6.13714 9.84869 5.8 9 5.8Z" fill="white" stroke="white"/>
</svg>
