<svg width="16" height="11" viewBox="0 0 16 11" fill="none" xmlns="http://www.w3.org/2000/svg">
<path d="M7.6 5.5C7.6 6.02096 7.38929 6.52058 7.01421 6.88896C6.63914 7.25733 6.13043 7.46429 5.6 7.46429C5.06957 7.46429 4.56086 7.25733 4.18579 6.88896C3.81071 6.52058 3.6 6.02096 3.6 5.5C3.6 4.97904 3.81071 4.47942 4.18579 4.11104C4.56086 3.74267 5.06957 3.53571 5.6 3.53571C5.86264 3.53571 6.12272 3.58652 6.36537 3.68524C6.60802 3.78395 6.8285 3.92864 7.01421 4.11104C7.19993 4.29344 7.34725 4.50998 7.44776 4.7483C7.54827 4.98662 7.6 5.24205 7.6 5.5ZM0 5.5C0 6.95869 0.589998 8.35764 1.6402 9.38909C2.69041 10.4205 4.11479 11 5.6 11C9.8 11 16 5.5 16 5.5C16 5.5 9.8 0 5.6 0C4.11479 0 2.69041 0.579463 1.6402 1.61091C0.589998 2.64236 0 4.04131 0 5.5Z" fill="#678983"/>
</svg>
