<svg width="12" height="17" viewBox="0 0 12 17" fill="none" xmlns="http://www.w3.org/2000/svg">
<path d="M6 8.1C5.47904 8.1 4.97941 7.88929 4.61104 7.51421C4.24267 7.13914 4.03571 6.63043 4.03571 6.1C4.03571 5.56957 4.24267 5.06086 4.61104 4.68579C4.97941 4.31071 5.47904 4.1 6 4.1C6.52096 4.1 7.02058 4.31071 7.38896 4.68579C7.75733 5.06086 7.96429 5.56957 7.96429 6.1C7.96429 6.36264 7.91348 6.62272 7.81476 6.86537C7.71605 7.10802 7.57136 7.3285 7.38896 7.51421C7.20656 7.69993 6.99002 7.84725 6.7517 7.94776C6.51338 8.04827 6.25795 8.1 6 8.1ZM6 0.5C4.54131 0.5 3.14236 1.09 2.11091 2.1402C1.07946 3.19041 0.5 4.61479 0.5 6.1C0.5 10.3 6 16.5 6 16.5C6 16.5 11.5 10.3 11.5 6.1C11.5 4.61479 10.9205 3.19041 9.88909 2.1402C8.85764 1.09 7.45869 0.5 6 0.5Z" fill="#678983"/>
</svg>
