<svg width="89" height="80" viewBox="0 0 89 80" fill="none" xmlns="http://www.w3.org/2000/svg">
<path d="M11.5 10H6.6V5.6H16.05V15.925C16.05 17.475 15.7417 18.8167 15.125 19.95C14.5083 21.0667 13.6583 21.9167 12.575 22.5C11.5083 23.0833 10.3167 23.375 9 23.375C7.73333 23.375 6.55833 23.0583 5.475 22.425C4.40833 21.7917 3.55833 20.9417 2.925 19.875C2.29167 18.7917 1.975 17.6167 1.975 16.35H6.525C6.525 17.1167 6.74167 17.7583 7.175 18.275C7.625 18.7917 8.225 19.05 8.975 19.05C9.775 19.05 10.3917 18.8 10.825 18.3C11.275 17.7833 11.5 17.0333 11.5 16.05V10ZM29.7559 5.225C31.0559 5.225 32.2559 5.55 33.3559 6.2C34.4559 6.83333 35.3225 7.7 35.9559 8.8C36.6059 9.9 36.9309 11.1 36.9309 12.4V16.2C36.9309 17.5 36.6059 18.7 35.9559 19.8C35.3225 20.9 34.4559 21.775 33.3559 22.425C32.2559 23.0583 31.0559 23.375 29.7559 23.375C28.4559 23.375 27.2559 23.0583 26.1559 22.425C25.0559 21.775 24.1809 20.9 23.5309 19.8C22.8975 18.7 22.5809 17.5 22.5809 16.2V12.4C22.5809 11.1 22.8975 9.9 23.5309 8.8C24.1809 7.7 25.0559 6.83333 26.1559 6.2C27.2559 5.55 28.4559 5.225 29.7559 5.225ZM23.5059 16.2C23.5059 17.3333 23.7809 18.3833 24.3309 19.35C24.8975 20.3 25.6559 21.0583 26.6059 21.625C27.5725 22.175 28.6225 22.45 29.7559 22.45C30.8892 22.45 31.9309 22.175 32.8809 21.625C33.8475 21.0583 34.6059 20.3 35.1559 19.35C35.7225 18.3833 36.0059 17.3333 36.0059 16.2V12.4C36.0059 11.2667 35.7225 10.225 35.1559 9.275C34.6059 8.30833 33.8475 7.55 32.8809 7C31.9309 6.43333 30.8892 6.15 29.7559 6.15C28.6225 6.15 27.5725 6.43333 26.6059 7C25.6559 7.55 24.8975 8.30833 24.3309 9.275C23.7809 10.225 23.5059 11.2667 23.5059 12.4V16.2ZM9.375 48.45C6.95833 48.45 5.09167 47.8833 3.775 46.75C2.475 45.6 1.83333 43.8833 1.85 41.6H5.925C5.90833 42.55 6.19167 43.275 6.775 43.775C7.35833 44.275 8.175 44.525 9.225 44.525C10.0917 44.525 10.775 44.3833 11.275 44.1C11.775 43.8167 12.025 43.3833 12.025 42.8C12.025 42.3167 11.7667 41.9667 11.25 41.75C10.75 41.5333 10.25 41.3833 9.75 41.3C9.25 41.2 8.94167 41.1417 8.825 41.125C7.54167 40.875 6.43333 40.575 5.5 40.225C4.56667 39.8583 3.78333 39.3083 3.15 38.575C2.51667 37.8417 2.2 36.875 2.2 35.675C2.2 34.475 2.51667 33.4583 3.15 32.625C3.78333 31.775 4.625 31.1417 5.675 30.725C6.74167 30.3083 7.9 30.1 9.15 30.1C10.6667 30.1 11.975 30.3833 13.075 30.95C14.1917 31.5167 15.0667 32.375 15.7 33.525C16.0167 34.075 16.2083 34.6083 16.275 35.125C16.3417 35.625 16.375 36.1167 16.375 36.6H12.3C12.3 35.7 12.0583 35.0417 11.575 34.625C11.0917 34.1917 10.3417 33.975 9.325 33.975C8.50833 33.975 7.875 34.1167 7.425 34.4C6.975 34.6833 6.75 35.0667 6.75 35.55C6.75 36.0833 7.05 36.475 7.65 36.725C8.25 36.975 9.00833 37.2 9.925 37.4C11.425 37.7 12.5917 37.9917 13.425 38.275C14.275 38.5417 15.0083 39.025 15.625 39.725C16.2417 40.425 16.55 41.4083 16.55 42.675C16.55 43.875 16.2167 44.9083 15.55 45.775C14.8833 46.6417 14 47.3083 12.9 47.775C11.8167 48.225 10.6417 48.45 9.375 48.45ZM23.6559 48H22.7309V30.6H23.7309L29.8059 41.325L35.8559 30.6H36.7809V48H35.8559V32.45L30.2309 42.375H29.3559L23.6559 32.325V48ZM16.275 55.6V56.525H9.7V73H8.8V56.525H2.225V55.6H16.275ZM24.0559 73V55.6H24.9809V63.825H36.5309V55.6H37.4559V73H36.5309V64.75H24.9809V73H24.0559Z" fill="white"/>
<path d="M42 30.6817V32.5M42 38.2468V46.0714M56.6667 30L46 30C45.6464 30 45.3072 30.1355 45.0572 30.3766C44.8071 30.6177 44.6667 30.9447 44.6667 31.2857V46.7143C44.6667 47.0553 44.8071 47.3823 45.0572 47.6234C45.3072 47.8645 45.6464 48 46 48H56.6667C57.0203 48 57.3594 47.8645 57.6095 47.6234C57.8595 47.3823 58 47.0553 58 46.7143V31.2857C58 30.9447 57.8595 30.6177 57.6095 30.3766C57.3594 30.1355 57.0203 30 56.6667 30ZM54 36.4286C54 37.1106 53.719 37.7646 53.219 38.2468C52.7189 38.7291 52.0406 39 51.3333 39C50.6261 39 49.9478 38.7291 49.4477 38.2468C48.9476 37.7646 48.6667 37.1106 48.6667 36.4286C48.6667 35.7466 48.9476 35.0925 49.4477 34.6103C49.9478 34.1281 50.6261 33.8571 51.3333 33.8571C52.0406 33.8571 52.7189 34.1281 53.219 34.6103C53.719 35.0925 54 35.7466 54 36.4286Z" stroke="#545454"/>
</svg>
