<svg width="18" height="16" viewBox="0 0 18 16" fill="none" xmlns="http://www.w3.org/2000/svg">
<mask id="path-1-inside-1_14_10" fill="white">
<path d="M17.3738 0.615532L17.9738 0.574917C17.966 0.454106 17.9237 0.338335 17.852 0.242099C17.7804 0.145864 17.6827 0.073439 17.5711 0.0338927C17.4596 -0.0056536 17.3391 -0.0105642 17.2248 0.0197757C17.1105 0.0501156 17.0075 0.114358 16.9287 0.204459L17.3738 0.615532ZM16.7763 4.25734C16.7763 4.09413 16.713 3.93761 16.6005 3.8222C16.488 3.7068 16.3354 3.64196 16.1763 3.64196C16.0172 3.64196 15.8645 3.7068 15.752 3.8222C15.6395 3.93761 15.5763 4.09413 15.5763 4.25734H16.7763ZM0.600718 14.1539V13.5385C0.471889 13.5383 0.34643 13.5807 0.242901 13.6593C0.139372 13.738 0.0632723 13.8487 0.0258585 13.9751C-0.0115553 14.1016 -0.00829543 14.237 0.0351558 14.3614C0.0786069 14.4858 0.159942 14.5926 0.267128 14.6659L0.600718 14.1539ZM1.79828 0.615532L2.36107 0.40015C2.32017 0.287791 2.24815 0.190139 2.15387 0.119198C2.05959 0.0482568 1.94715 0.00711947 1.83038 0.000843367C1.7136 -0.00543273 1.59759 0.0234259 1.49659 0.0838713C1.3956 0.144317 1.31402 0.233714 1.2619 0.341073L1.79828 0.615532ZM6.59095 11.6923L7.01574 12.1268C7.08781 12.0527 7.14024 11.9609 7.16807 11.8601C7.1959 11.7594 7.19821 11.653 7.17478 11.5511C7.15135 11.4492 7.10296 11.3551 7.03418 11.2778C6.96541 11.2004 6.87852 11.1423 6.78174 11.109L6.59095 11.6923ZM15.2595 1.81306L14.8155 2.22659L15.0315 2.47151L15.3495 2.42228L15.2595 1.81306ZM16.7763 0.656147C16.8375 1.61368 16.7799 2.19459 16.6287 2.63274C16.4823 3.05735 16.2255 3.40689 15.7611 3.8635L16.5915 4.75211C17.1171 4.23519 17.5226 3.72812 17.7602 3.04382C17.9918 2.37182 18.0398 1.59398 17.9738 0.574917L16.7763 0.656147ZM16.7763 5.15333V4.25734H15.5763V5.15456H16.7763V5.15333ZM8.3885 4.35826V5.53856H9.58846V4.35826H8.3885ZM8.3885 5.53856V6.15394H9.58846V5.53856H8.3885ZM12.6304 0.000153647C12.0727 0.000476807 11.5205 0.113459 11.0054 0.33265C10.4903 0.55184 10.0223 0.872946 9.62823 1.27763C9.23411 1.68232 8.92156 2.16267 8.70844 2.69124C8.49531 3.21982 8.38578 3.78627 8.3861 4.35826H9.58606C9.58575 3.94779 9.66428 3.54128 9.81718 3.16195C9.97007 2.78262 10.1943 2.43789 10.4772 2.14748C10.76 1.85706 11.0958 1.62663 11.4655 1.46937C11.8351 1.3121 12.2314 1.23107 12.6316 1.23091V0.000153647H12.6304ZM15.5751 5.15333C15.5763 10.4653 11.3848 14.7692 6.21656 14.7692V16C12.0484 16 16.7763 11.1434 16.7763 5.15333H15.5751ZM1.2367 0.830915C1.88948 2.61797 4.33741 6.15394 8.98848 6.15394V4.92318C5.00939 4.92318 2.90585 1.89552 2.35987 0.40015L1.2367 0.830915ZM1.2619 0.341073C0.00553501 2.92074 -0.187659 5.4241 0.725515 7.55577C1.63629 9.68129 3.59583 11.3157 6.40135 12.2757L6.78174 11.109C4.19582 10.2228 2.56026 8.78038 1.82348 7.05978C1.0891 5.34533 1.1959 3.23212 2.33587 0.889991L1.2619 0.341073ZM6.16616 11.2579C5.44378 12 3.27184 13.5385 0.600718 13.5385V14.7692C3.67983 14.7692 6.14096 13.0265 7.01574 12.1268L6.16616 11.2579ZM15.7047 1.40076C15.3167 0.959471 14.8427 0.606748 14.3133 0.365463C13.7839 0.124178 13.2109 -0.000282338 12.6316 0.000153647V1.23091C13.4968 1.23091 14.2755 1.61368 14.8155 2.22659L15.7047 1.40076ZM15.3495 2.42228C16.3053 2.26212 17.1782 1.76927 17.8214 1.02661L16.9287 0.204459C16.4712 0.734595 15.8502 1.08778 15.1695 1.20506L15.3495 2.42228ZM0.267128 14.6659C2.23627 16.0123 4.30021 16 6.21656 16V14.7692C4.26061 14.7692 2.55906 14.7557 0.934309 13.6419L0.267128 14.6659Z"/>
</mask>
<path d="M17.3738 0.615532L17.9738 0.574917C17.966 0.454106 17.9237 0.338335 17.852 0.242099C17.7804 0.145864 17.6827 0.073439 17.5711 0.0338927C17.4596 -0.0056536 17.3391 -0.0105642 17.2248 0.0197757C17.1105 0.0501156 17.0075 0.114358 16.9287 0.204459L17.3738 0.615532ZM16.7763 4.25734C16.7763 4.09413 16.713 3.93761 16.6005 3.8222C16.488 3.7068 16.3354 3.64196 16.1763 3.64196C16.0172 3.64196 15.8645 3.7068 15.752 3.8222C15.6395 3.93761 15.5763 4.09413 15.5763 4.25734H16.7763ZM0.600718 14.1539V13.5385C0.471889 13.5383 0.34643 13.5807 0.242901 13.6593C0.139372 13.738 0.0632723 13.8487 0.0258585 13.9751C-0.0115553 14.1016 -0.00829543 14.237 0.0351558 14.3614C0.0786069 14.4858 0.159942 14.5926 0.267128 14.6659L0.600718 14.1539ZM1.79828 0.615532L2.36107 0.40015C2.32017 0.287791 2.24815 0.190139 2.15387 0.119198C2.05959 0.0482568 1.94715 0.00711947 1.83038 0.000843367C1.7136 -0.00543273 1.59759 0.0234259 1.49659 0.0838713C1.3956 0.144317 1.31402 0.233714 1.2619 0.341073L1.79828 0.615532ZM6.59095 11.6923L7.01574 12.1268C7.08781 12.0527 7.14024 11.9609 7.16807 11.8601C7.1959 11.7594 7.19821 11.653 7.17478 11.5511C7.15135 11.4492 7.10296 11.3551 7.03418 11.2778C6.96541 11.2004 6.87852 11.1423 6.78174 11.109L6.59095 11.6923ZM15.2595 1.81306L14.8155 2.22659L15.0315 2.47151L15.3495 2.42228L15.2595 1.81306ZM16.7763 0.656147C16.8375 1.61368 16.7799 2.19459 16.6287 2.63274C16.4823 3.05735 16.2255 3.40689 15.7611 3.8635L16.5915 4.75211C17.1171 4.23519 17.5226 3.72812 17.7602 3.04382C17.9918 2.37182 18.0398 1.59398 17.9738 0.574917L16.7763 0.656147ZM16.7763 5.15333V4.25734H15.5763V5.15456H16.7763V5.15333ZM8.3885 4.35826V5.53856H9.58846V4.35826H8.3885ZM8.3885 5.53856V6.15394H9.58846V5.53856H8.3885ZM12.6304 0.000153647C12.0727 0.000476807 11.5205 0.113459 11.0054 0.33265C10.4903 0.55184 10.0223 0.872946 9.62823 1.27763C9.23411 1.68232 8.92156 2.16267 8.70844 2.69124C8.49531 3.21982 8.38578 3.78627 8.3861 4.35826H9.58606C9.58575 3.94779 9.66428 3.54128 9.81718 3.16195C9.97007 2.78262 10.1943 2.43789 10.4772 2.14748C10.76 1.85706 11.0958 1.62663 11.4655 1.46937C11.8351 1.3121 12.2314 1.23107 12.6316 1.23091V0.000153647H12.6304ZM15.5751 5.15333C15.5763 10.4653 11.3848 14.7692 6.21656 14.7692V16C12.0484 16 16.7763 11.1434 16.7763 5.15333H15.5751ZM1.2367 0.830915C1.88948 2.61797 4.33741 6.15394 8.98848 6.15394V4.92318C5.00939 4.92318 2.90585 1.89552 2.35987 0.40015L1.2367 0.830915ZM1.2619 0.341073C0.00553501 2.92074 -0.187659 5.4241 0.725515 7.55577C1.63629 9.68129 3.59583 11.3157 6.40135 12.2757L6.78174 11.109C4.19582 10.2228 2.56026 8.78038 1.82348 7.05978C1.0891 5.34533 1.1959 3.23212 2.33587 0.889991L1.2619 0.341073ZM6.16616 11.2579C5.44378 12 3.27184 13.5385 0.600718 13.5385V14.7692C3.67983 14.7692 6.14096 13.0265 7.01574 12.1268L6.16616 11.2579ZM15.7047 1.40076C15.3167 0.959471 14.8427 0.606748 14.3133 0.365463C13.7839 0.124178 13.2109 -0.000282338 12.6316 0.000153647V1.23091C13.4968 1.23091 14.2755 1.61368 14.8155 2.22659L15.7047 1.40076ZM15.3495 2.42228C16.3053 2.26212 17.1782 1.76927 17.8214 1.02661L16.9287 0.204459C16.4712 0.734595 15.8502 1.08778 15.1695 1.20506L15.3495 2.42228ZM0.267128 14.6659C2.23627 16.0123 4.30021 16 6.21656 16V14.7692C4.26061 14.7692 2.55906 14.7557 0.934309 13.6419L0.267128 14.6659Z" fill="white"/>
<path d="M15.5763 248.757H16.7763V-240.243H15.5763V248.757ZM8.98848 -240.142H8.3885V248.858H8.98848V-240.142ZM8.98848 250.039H9.58846V-238.961H8.98848V250.039ZM8.3885 250.039H9.58846V-238.961H8.3885V250.039ZM257.132 1.23091V0.000153647H-231.868V1.23091H257.132ZM-238.283 14.7692V16H250.717V14.7692H-238.283ZM17.3738 0.615532L-314.362 359.882L-159.671 502.719L50.4003 488.499L17.3738 0.615532ZM16.9287 0.204459L-351.054 -321.836L-352.169 -320.561L-353.276 -319.279L16.9287 0.204459ZM16.1763 3.64196L16.1763 492.642L16.1763 3.64196ZM8.3885 4.35826V-484.642H-480.612V4.35826H8.3885ZM0.600718 14.1539L410.309 281.099L489.601 159.403V14.1539H0.600718ZM0.267128 14.6659L-275.779 418.298L-275.761 418.311L-275.743 418.323L0.267128 14.6659ZM1.79828 0.615532L-220.948 435.937L-26.947 535.204L176.58 457.313L1.79828 0.615532ZM2.36107 0.40015L177.143 457.097L626.398 285.163L461.868 -166.855L2.36107 0.40015ZM6.59095 11.6923L-458.184 -140.313L-550.36 141.529L-343.053 353.555L6.59095 11.6923ZM7.01574 12.1268L357.61 353.015L357.647 352.977L357.683 352.939L7.01574 12.1268ZM6.78174 11.109L165.969 -451.255L165.636 -451.37L165.303 -451.484L6.78174 11.109ZM15.2595 1.81306L499.01 -69.6493L363.001 -990.331L-318.026 -356.016L15.2595 1.81306ZM14.8155 2.22659L-352.1 325.482L-352.019 325.574L-351.938 325.666L14.8155 2.22659ZM15.0315 2.47151L-351.722 325.91L-174.676 526.667L89.8456 485.715L15.0315 2.47151ZM15.3495 2.42228L90.1636 485.665L93.1664 485.2L96.1632 484.698L15.3495 2.42228ZM16.7763 0.656147L-16.3161 -487.223L-502.296 -454.259L-471.228 31.8458L16.7763 0.656147ZM16.6287 2.63274L-445.623 -156.88L-445.645 -156.818L-445.666 -156.755L16.6287 2.63274ZM15.7611 3.8635L-327.083 -344.819L-667.012 -10.5809L-341.522 337.734L15.7611 3.8635ZM16.5915 4.75211L-340.692 338.623L1.81943 705.153L359.48 353.39L16.5915 4.75211ZM17.7602 3.04382L479.708 163.435L479.892 162.905L480.075 162.374L17.7602 3.04382ZM15.5763 5.15456H-473.424V494.155H15.5763V5.15456ZM16.7763 5.15456V494.155H505.776V5.15456H16.7763ZM9.58846 4.35826H498.588V-484.642H9.58846V4.35826ZM8.3885 6.15394H-480.612V495.154H8.3885V6.15394ZM9.58846 6.15394V495.154H498.588V6.15394H9.58846ZM12.6304 0.000153647V-489H12.4887L12.347 -489L12.6304 0.000153647ZM8.3861 4.35826L-480.614 4.62778L-480.344 493.358L8.3861 493.358V4.35826ZM9.58606 4.35826V493.358H498.962L498.586 3.98267L9.58606 4.35826ZM12.6316 1.23091V-487.769H12.5329L12.4342 -487.769L12.6316 1.23091ZM12.6316 0.000153647V489H12.8156L12.9996 489L12.6316 0.000153647ZM15.5751 5.15333V-483.847H-473.535L-473.425 5.2638L15.5751 5.15333ZM1.2367 0.830915L-173.871 -455.741L-623.196 -283.413L-458.079 168.611L1.2367 0.830915ZM8.98848 6.15394V495.154H497.988V6.15394H8.98848ZM8.98848 4.92318H497.988V-484.077H8.98848V4.92318ZM2.35987 0.40015L461.7 -167.313L291.257 -634.13L-172.748 -456.172L2.35987 0.40015ZM0.725515 7.55577L-448.767 200.111L-448.758 200.132L-448.749 200.153L0.725515 7.55577ZM6.40135 12.2757L-151.912 474.939L317.525 635.571L471.317 163.849L6.40135 12.2757ZM1.82348 7.05978L451.344 -185.43L451.333 -185.456L451.322 -185.482L1.82348 7.05978ZM2.33587 0.889991L442.021 214.895L651.887 -216.287L224.885 -434.533L2.33587 0.889991ZM6.16616 11.2579L355.81 -330.605L5.38041 -689.011L-344.244 -329.819L6.16616 11.2579ZM0.600718 14.7692H-488.399V503.769H0.600718V14.7692ZM15.7047 1.40076L348.483 359.702L697.131 35.8887L382.958 -321.47L15.7047 1.40076ZM17.8214 1.02661L387.463 321.161L697.983 -37.3789L349.075 -358.684L17.8214 1.02661ZM15.1695 1.20506L-67.8621 -480.694L-538.419 -399.617L-468.57 72.7378L15.1695 1.20506ZM0.934309 13.6419L277.43 -389.683L-135.483 -672.752L-408.774 -253.304L0.934309 13.6419ZM50.4003 488.499L51.0003 488.458L-15.0527 -487.309L-15.6526 -487.268L50.4003 488.499ZM505.961 -30.8856C499.935 -124.353 467.131 -215.135 410.115 -291.735L-374.411 292.219C-431.284 215.812 -464.003 125.261 -470.013 32.0354L505.961 -30.8856ZM410.115 -291.735C353.004 -368.463 273.707 -427.988 180.937 -460.87L-145.795 460.938C-238.342 428.135 -317.443 368.755 -374.411 292.219L410.115 -291.735ZM180.937 -460.87C88.0394 -493.798 -12.7597 -497.96 -108.252 -472.608L142.702 472.647C47.4379 497.938 -53.1203 493.786 -145.795 460.938L180.937 -460.87ZM-108.252 -472.608C-203.639 -447.283 -287.78 -394.137 -351.054 -321.836L384.911 322.245C321.795 394.365 237.86 447.384 142.702 472.647L-108.252 -472.608ZM-314.808 359.471L-314.362 359.882L349.11 -358.651L348.665 -359.062L-314.808 359.471ZM505.776 4.25734C505.776 -121.653 457.127 -244.827 366.728 -337.546L-333.527 345.19C-423.701 252.702 -472.224 129.841 -472.224 4.25734H505.776ZM366.728 -337.546C275.919 -430.684 150.081 -485.358 16.1763 -485.358L16.1763 492.642C-117.41 492.642 -242.943 438.098 -333.527 345.19L366.728 -337.546ZM16.1763 -485.358C-117.731 -485.358 -243.568 -430.682 -334.375 -337.546L365.879 345.19C275.298 438.096 149.765 492.642 16.1763 492.642L16.1763 -485.358ZM-334.375 -337.546C-424.772 -244.829 -473.424 -121.657 -473.424 4.25734H504.576C504.576 129.845 456.051 252.705 365.879 345.19L-334.375 -337.546ZM489.601 14.1539V13.5385H-488.399V14.1539H489.601ZM1.21536 -475.461C-107.009 -475.597 -211.05 -439.921 -295.544 -375.739L296.03 403.058C211.743 467.082 107.953 502.674 -0.0139262 502.538L1.21536 -475.461ZM-295.544 -375.739C-379.828 -311.717 -439.746 -223.223 -468.877 -124.773L468.929 152.724C439.872 250.92 380.107 339.193 296.03 403.058L-295.544 -375.739ZM-468.877 -124.773C-497.976 -26.434 -495.484 78.6475 -461.611 175.617L461.682 -146.895C495.467 -50.1735 497.953 54.6372 468.929 152.724L-468.877 -124.773ZM-461.611 175.617C-427.696 272.711 -363.386 358.384 -275.779 418.298L276.314 -388.967C363.706 -329.199 427.853 -243.739 461.682 -146.895L-461.611 175.617ZM409.976 281.611L410.309 281.099L-409.108 -252.792L-409.441 -252.28L409.976 281.611ZM176.58 457.313L177.143 457.097L-172.421 -456.297L-172.984 -456.082L176.58 457.313ZM461.868 -166.855C429.913 -254.647 372.956 -332.842 296.16 -390.626L-291.852 390.864C-368.46 333.222 -425.272 255.223 -457.146 167.656L461.868 -166.855ZM296.16 -390.626C219.22 -448.517 126.076 -483.027 28.0745 -488.294L-24.4137 488.296C-122.181 483.041 -215.1 448.614 -291.852 390.864L296.16 -390.626ZM28.0745 -488.294C-69.9501 -493.563 -166.554 -469.228 -249.627 -419.509L252.62 419.676C169.749 469.275 73.3773 493.552 -24.4137 488.296L28.0745 -488.294ZM-249.627 -419.509C-332.553 -369.878 -397.652 -297.642 -438.635 -213.229L441.158 213.911C400.28 298.11 335.344 370.167 252.62 419.676L-249.627 -419.509ZM-221.485 435.663L-220.948 435.937L224.545 -434.706L224.008 -434.981L-221.485 435.663ZM-343.053 353.555L-342.628 353.989L356.66 -329.736L356.235 -330.17L-343.053 353.555ZM357.683 352.939C415.677 293.269 456.84 220.518 478.511 142.08L-464.174 -118.36C-442.56 -196.596 -401.502 -269.163 -343.652 -328.686L357.683 352.939ZM478.511 142.08C500.17 63.6835 501.946 -18.8284 483.743 -98.0087L-469.394 121.111C-487.55 42.1345 -485.778 -40.1647 -464.174 -118.36L478.511 142.08ZM483.743 -98.0087C465.533 -177.223 427.66 -251.562 372.514 -313.6L-358.446 336.155C-413.454 274.272 -451.23 200.121 -469.394 121.111L483.743 -98.0087ZM372.514 -313.6C317.301 -375.714 246.444 -423.548 165.969 -451.255L-152.406 473.473C-232.687 445.833 -303.37 398.114 -358.446 336.155L372.514 -313.6ZM-457.993 -140.896L-458.184 -140.313L471.366 163.697L471.556 163.114L-457.993 -140.896ZM-318.026 -356.016L-318.47 -355.603L348.101 360.056L348.545 359.642L-318.026 -356.016ZM-351.938 325.666L-351.722 325.91L381.785 -320.967L381.569 -321.212L-351.938 325.666ZM89.8456 485.715L90.1636 485.665L-59.4646 -480.821L-59.7826 -480.772L89.8456 485.715ZM499.1 -69.0401L499.01 -69.6493L-468.491 73.2754L-468.401 73.8847L499.1 -69.0401ZM-471.228 31.8458C-472.692 8.93979 -476.762 -66.643 -445.623 -156.88L478.88 162.146C510.322 71.0322 506.367 -5.71244 504.781 -30.5335L-471.228 31.8458ZM-445.666 -156.755C-410.491 -258.779 -350.932 -321.369 -327.083 -344.819L358.605 352.546C383.383 328.183 443.455 264.894 478.923 162.021L-445.666 -156.755ZM-341.522 337.734L-340.692 338.623L373.875 -329.119L373.044 -330.007L-341.522 337.734ZM359.48 353.39C384.966 328.325 444.326 265.339 479.708 163.435L-444.188 -157.347C-409.281 -257.882 -350.731 -319.854 -326.297 -343.886L359.48 353.39ZM480.075 162.374C511.435 71.3781 507.62 -5.26412 505.952 -31.0281L-470.004 32.178C-471.54 8.45209 -475.452 -66.6344 -444.554 -156.287L480.075 162.374ZM-15.1186 -487.304L-16.3161 -487.223L49.8686 488.535L51.0662 488.454L-15.1186 -487.304ZM505.776 5.15333V4.25734H-472.224V5.15333H505.776ZM-473.424 4.25734V5.15456H504.576V4.25734H-473.424ZM15.5763 494.155H16.7763V-483.845H15.5763V494.155ZM505.776 5.15456V5.15333H-472.224V5.15456H505.776ZM-480.612 4.35826V5.53856H497.388V4.35826H-480.612ZM498.588 5.53856V4.35826H-479.412V5.53856H498.588ZM9.58846 -484.642H8.3885V493.358H9.58846V-484.642ZM-480.612 5.53856V6.15394H497.388V5.53856H-480.612ZM8.3885 495.154H9.58846V-482.846H8.3885V495.154ZM498.588 6.15394V5.53856H-479.412V6.15394H498.588ZM12.347 -489C-54.1715 -488.961 -119.726 -475.469 -180.461 -449.625L202.472 450.29C142.767 475.696 78.3169 488.962 12.9137 489L12.347 -489ZM-180.461 -449.625C-241.168 -423.793 -295.501 -386.295 -340.692 -339.892L359.948 342.448C315.546 388.041 262.149 424.896 202.472 450.29L-180.461 -449.625ZM-340.692 -339.892C-385.856 -293.516 -421.038 -239.138 -444.814 -180.171L462.231 185.554C438.881 243.464 404.325 296.881 359.948 342.448L-340.692 -339.892ZM-444.814 -180.171C-468.581 -121.224 -480.649 -58.4655 -480.614 4.62778L497.386 4.08875C497.42 66.0381 485.572 127.664 462.231 185.554L-444.814 -180.171ZM8.3861 493.358H9.58606V-484.642H8.3861V493.358ZM498.586 3.98267C498.634 66.1099 486.762 127.913 463.362 185.969L-443.727 -179.645C-467.433 -120.831 -479.462 -58.2143 -479.414 4.73386L498.586 3.98267ZM463.362 185.969C439.954 244.044 405.305 297.614 360.806 343.308L-339.852 -339.013C-384.916 -292.738 -420.013 -238.479 -443.727 -179.645L463.362 185.969ZM360.806 343.308C316.282 389.029 262.737 425.983 202.899 451.441L-179.968 -448.502C-240.546 -422.73 -294.762 -385.315 -339.852 -339.013L360.806 343.308ZM202.899 451.441C143.03 476.911 78.4061 490.204 12.829 490.231L12.4342 -487.769C-53.9434 -487.742 -119.36 -474.287 -179.968 -448.502L202.899 451.441ZM12.6316 -489H12.6304V489H12.6316V-489ZM-473.425 5.2638C-473.482 -247.142 -270.954 -474.231 6.21656 -474.231V503.769C293.724 503.769 504.635 268.072 504.575 5.04287L-473.425 5.2638ZM6.21656 505C294.399 505 505.776 268.762 505.776 5.15333H-472.224C-472.224 -246.475 -270.302 -473 6.21656 -473V505ZM16.7763 -483.847H15.5751V494.153H16.7763V-483.847ZM-458.079 168.611C-417.686 279.19 -278.071 495.154 8.98848 495.154V-482.846C141.163 -482.846 250.035 -429.503 324.272 -365.024C389.778 -308.129 434.459 -238.384 460.552 -166.949L-458.079 168.611ZM497.988 6.15394V4.92318H-480.012V6.15394H497.988ZM8.98848 -484.077C141.429 -484.077 250.211 -430.675 324.232 -366.669C389.388 -310.329 434.971 -240.52 461.7 -167.313L-456.98 168.113C-415.994 280.369 -275.899 493.923 8.98848 493.923V-484.077ZM-172.748 -456.172L-173.871 -455.741L176.344 457.403L177.467 456.973L-172.748 -456.172ZM-438.371 -213.771C-485.027 -117.973 -519.121 35.8807 -448.767 200.111L450.218 -185C518.745 -25.0325 485.038 123.814 440.895 214.454L-438.371 -213.771ZM-448.749 200.153C-379.172 362.529 -247.148 442.352 -151.912 474.939L164.715 -450.388C254.34 -419.72 382.444 -343.166 450.2 -185.042L-448.749 200.153ZM471.317 163.849L471.697 162.682L-458.134 -140.464L-458.514 -139.297L471.317 163.849ZM165.303 -451.484C255.116 -420.707 383.473 -343.929 451.344 -185.43L-447.697 199.549C-378.352 361.49 -246.724 441.152 -151.739 473.702L165.303 -451.484ZM451.322 -185.482C519.95 -25.2655 486.312 123.896 442.021 214.895L-437.349 -213.115C-483.92 -117.432 -517.772 35.9561 -447.675 199.602L451.322 -185.482ZM224.885 -434.533L223.811 -435.082L-221.287 435.764L-220.213 436.313L224.885 -434.533ZM-344.244 -329.819C-302.664 -372.537 -257.012 -403.759 -212.319 -425.818C-164.29 -449.525 -91.1835 -475.462 0.600718 -475.462V502.538C174.097 502.538 294.97 415.627 356.576 352.335L-344.244 -329.819ZM-488.399 13.5385V14.7692H489.601V13.5385H-488.399ZM0.600718 503.769C174.664 503.769 295.879 416.503 357.61 353.015L-343.579 -328.761C-303.308 -370.178 -258.216 -401.777 -211.96 -424.629C-162.693 -448.97 -89.8697 -474.231 0.600718 -474.231V503.769ZM356.66 -329.736L355.81 -330.605L-343.478 353.121L-342.628 353.989L356.66 -329.736ZM382.958 -321.47C337.451 -373.233 281.102 -415.435 217.111 -444.6L-188.484 445.331C-251.417 416.649 -306.818 375.152 -351.549 324.272L382.958 -321.47ZM217.111 -444.6C153.08 -473.782 83.2474 -489.053 12.2636 -489L12.9996 489C-56.8256 489.053 -125.513 474.031 -188.484 445.331L217.111 -444.6ZM12.6316 490.231C-134.839 490.231 -265.165 424.159 -352.1 325.482L381.731 -321.029C293.716 -420.932 161.833 -487.769 12.6316 -487.769V490.231ZM347.594 360.527L348.483 359.702L-317.074 -356.9L-317.963 -356.074L347.594 360.527ZM96.1632 484.698C210.998 465.456 313.455 406.614 387.463 321.161L-351.82 -319.108C-279.098 -403.076 -178.387 -460.932 -65.4641 -479.854L96.1632 484.698ZM349.075 -358.684L348.182 -359.507L-314.325 359.915L-313.432 360.738L349.075 -358.684ZM-353.276 -319.279C-280.824 -403.233 -180.494 -461.288 -67.8621 -480.694L98.2011 483.104C212.194 463.463 313.767 404.702 387.133 319.688L-353.276 -319.279ZM-468.57 72.7378L-468.39 73.955L499.089 -69.1104L498.909 -70.3277L-468.57 72.7378ZM-275.743 418.323C-132.787 516.073 19.0955 505 6.21656 505V-473C-10.495 -473 137.259 -484.049 276.277 -388.992L-275.743 418.323ZM6.21656 -474.231C6.21904 -474.231 6.25049 -474.231 6.29787 -474.231C6.34618 -474.231 6.42095 -474.231 6.51468 -474.231C6.69819 -474.23 6.99277 -474.23 7.36118 -474.229C8.07927 -474.227 9.26688 -474.221 10.7493 -474.205C13.6241 -474.174 18.5213 -474.096 24.63 -473.848C36.5261 -473.365 57.0362 -472.105 82.292 -467.979C138.045 -458.871 208.104 -437.209 277.43 -389.683L-275.561 416.967C-204.61 465.607 -132.889 487.832 -75.3895 497.226C-49.2607 501.494 -27.857 502.827 -15.041 503.347C-8.47231 503.614 -3.10858 503.702 0.240044 503.738C3.40259 503.772 6.03011 503.769 6.21656 503.769V-474.231ZM-408.774 -253.304L-409.441 -252.28L409.976 281.611L410.643 280.587L-408.774 -253.304Z" fill="white" mask="url(#path-1-inside-1_14_10)"/>
</svg>
